<svg width="400" height="400" viewBox="0 0 400 400" fill="none" xmlns="http://www.w3.org/2000/svg">
<g clip-path="url(#clip0_237_9)">
<rect width="400" height="400" rx="60" fill="#2366EC"/>
<path d="M123.811 285.507C124.822 281.091 127.302 277.15 130.846 274.328L244.491 183.813C248.034 180.99 252.43 179.455 256.96 179.457L283.878 179.469C290.301 179.472 295.055 185.442 293.621 191.702L287.611 217.941C286.6 222.356 284.12 226.297 280.576 229.12L166.931 319.635C163.388 322.457 158.992 323.992 154.462 323.99L127.544 323.978C121.121 323.975 116.367 318.005 117.801 311.745L123.811 285.507Z" fill="white"/>
<path d="M112.811 182.507C113.822 178.091 116.302 174.15 119.846 171.328L233.491 80.8128C237.034 77.9907 241.43 76.4549 245.96 76.457L272.878 76.4694C279.301 76.4724 284.055 82.442 282.621 88.7021L276.611 114.941C275.6 119.356 273.12 123.298 269.576 126.12L155.931 216.635C152.388 219.457 147.992 220.993 143.462 220.991L116.544 220.978C110.121 220.975 105.367 215.006 106.801 208.745L112.811 182.507Z" fill="white"/>
</g>
<defs>
<clipPath id="clip0_237_9">
<rect width="400" height="400" fill="white"/>
</clipPath>
</defs>
</svg>
